<?xml version="1.0" standalone="no"?>
<!DOCTYPE svg PUBLIC "-//W3C//DTD SVG 20010904//EN"
 "http://www.w3.org/TR/2001/REC-SVG-20010904/DTD/svg10.dtd">
<svg version="1.0" xmlns="http://www.w3.org/2000/svg"
 width="800.000000pt" height="603.000000pt" viewBox="0 0 800.000000 603.000000"
 preserveAspectRatio="xMidYMid meet">

<g transform="translate(0.000000,603.000000) scale(0.100000,-0.100000)"
fill="#000000" stroke="none">
<path d="M3110 4613 l0 -758 -780 -3 -780 -2 0 -760 0 -760 780 0 780 0 2
-782 3 -783 773 -3 772 -2 0 785 0 785 828 0 c456 0 831 2 833 4 2 2 3 344 1
760 l-2 756 -830 0 -830 0 0 760 0 760 -775 0 -775 0 0 -757z"/>
</g>
</svg>
